<svg xmlns="http://www.w3.org/2000/svg" viewBox="0 0 64 64" fill="none">
  <defs>
    <radialGradient id="bg" cx="50%" cy="35%" r="75%">
      <stop offset="0%" stop-color="#1E2440"/>
      <stop offset="65%" stop-color="#0F1428"/>
      <stop offset="100%" stop-color="#070A15"/>
    </radialGradient>
    <linearGradient id="horn" x1="0%" y1="0%" x2="100%" y2="100%">
      <stop offset="0%" stop-color="#F6C87D"/>
      <stop offset="55%" stop-color="#E8955A"/>
      <stop offset="100%" stop-color="#2DC6BB"/>
    </linearGradient>
  </defs>
  <rect width="64" height="64" rx="14" fill="url(#bg)"/>
  <g stroke="url(#horn)" stroke-width="2.4" fill="none" stroke-linecap="round" stroke-linejoin="round">
    <path d="M32 10 C22 10 17 18 17 26 C17 32 21 36 26 36 C29 36 31 34 31 31 C31 29 30 28 29 28"/>
    <path d="M32 54 C42 54 47 46 47 38 C47 32 43 28 38 28 C35 28 33 30 33 33 C33 35 34 36 35 36"/>
  </g>
  <circle cx="32" cy="32" r="1.8" fill="#F6C87D"/>
</svg>
